<svg version="1.1" xmlns="http://www.w3.org/2000/svg" xmlns:xlink="http://www.w3.org/1999/xlink" width="633.0126953125" height="284"><defs/><g><text fill="#eeeeee" stroke="none" font-family="Arial" font-size="24px" font-style="normal" font-weight="normal" text-decoration="none" x="0" y="0">UNREGISTERED</text><text fill="#eeeeee" stroke="none" font-family="Arial" font-size="24px" font-style="normal" font-weight="normal" text-decoration="none" x="0" y="30">UNREGISTERED</text><text fill="#eeeeee" stroke="none" font-family="Arial" font-size="24px" font-style="normal" font-weight="normal" text-decoration="none" x="0" y="60">UNREGISTERED</text><text fill="#eeeeee" stroke="none" font-family="Arial" font-size="24px" font-style="normal" font-weight="normal" text-decoration="none" x="0" y="90">UNREGISTERED</text><text fill="#eeeeee" stroke="none" font-family="Arial" font-size="24px" font-style="normal" font-weight="normal" text-decoration="none" x="0" y="120">UNREGISTERED</text><text fill="#eeeeee" stroke="none" font-family="Arial" font-size="24px" font-style="normal" font-weight="normal" text-decoration="none" x="0" y="150">UNREGISTERED</text><text fill="#eeeeee" stroke="none" font-family="Arial" font-size="24px" font-style="normal" font-weight="normal" text-decoration="none" x="0" y="180">UNREGISTERED</text><text fill="#eeeeee" stroke="none" font-family="Arial" font-size="24px" font-style="normal" font-weight="normal" text-decoration="none" x="0" y="210">UNREGISTERED</text><text fill="#eeeeee" stroke="none" font-family="Arial" font-size="24px" font-style="normal" font-weight="normal" text-decoration="none" x="0" y="240">UNREGISTERED</text><text fill="#eeeeee" stroke="none" font-family="Arial" font-size="24px" font-style="normal" font-weight="normal" text-decoration="none" x="0" y="270">UNREGISTERED</text><text fill="#eeeeee" stroke="none" font-family="Arial" font-size="24px" font-style="normal" font-weight="normal" text-decoration="none" x="200" y="0">UNREGISTERED</text><text fill="#eeeeee" stroke="none" font-family="Arial" font-size="24px" font-style="normal" font-weight="normal" text-decoration="none" x="200" y="30">UNREGISTERED</text><text fill="#eeeeee" stroke="none" font-family="Arial" font-size="24px" font-style="normal" font-weight="normal" text-decoration="none" x="200" y="60">UNREGISTERED</text><text fill="#eeeeee" stroke="none" font-family="Arial" font-size="24px" font-style="normal" font-weight="normal" text-decoration="none" x="200" y="90">UNREGISTERED</text><text fill="#eeeeee" stroke="none" font-family="Arial" font-size="24px" font-style="normal" font-weight="normal" text-decoration="none" x="200" y="120">UNREGISTERED</text><text fill="#eeeeee" stroke="none" font-family="Arial" font-size="24px" font-style="normal" font-weight="normal" text-decoration="none" x="200" y="150">UNREGISTERED</text><text fill="#eeeeee" stroke="none" font-family="Arial" font-size="24px" font-style="normal" font-weight="normal" text-decoration="none" x="200" y="180">UNREGISTERED</text><text fill="#eeeeee" stroke="none" font-family="Arial" font-size="24px" font-style="normal" font-weight="normal" text-decoration="none" x="200" y="210">UNREGISTERED</text><text fill="#eeeeee" stroke="none" font-family="Arial" font-size="24px" font-style="normal" font-weight="normal" text-decoration="none" x="200" y="240">UNREGISTERED</text><text fill="#eeeeee" stroke="none" font-family="Arial" font-size="24px" font-style="normal" font-weight="normal" text-decoration="none" x="200" y="270">UNREGISTERED</text><text fill="#eeeeee" stroke="none" font-family="Arial" font-size="24px" font-style="normal" font-weight="normal" text-decoration="none" x="400" y="0">UNREGISTERED</text><text fill="#eeeeee" stroke="none" font-family="Arial" font-size="24px" font-style="normal" font-weight="normal" text-decoration="none" x="400" y="30">UNREGISTERED</text><text fill="#eeeeee" stroke="none" font-family="Arial" font-size="24px" font-style="normal" font-weight="normal" text-decoration="none" x="400" y="60">UNREGISTERED</text><text fill="#eeeeee" stroke="none" font-family="Arial" font-size="24px" font-style="normal" font-weight="normal" text-decoration="none" x="400" y="90">UNREGISTERED</text><text fill="#eeeeee" stroke="none" font-family="Arial" font-size="24px" font-style="normal" font-weight="normal" text-decoration="none" x="400" y="120">UNREGISTERED</text><text fill="#eeeeee" stroke="none" font-family="Arial" font-size="24px" font-style="normal" font-weight="normal" text-decoration="none" x="400" y="150">UNREGISTERED</text><text fill="#eeeeee" stroke="none" font-family="Arial" font-size="24px" font-style="normal" font-weight="normal" text-decoration="none" x="400" y="180">UNREGISTERED</text><text fill="#eeeeee" stroke="none" font-family="Arial" font-size="24px" font-style="normal" font-weight="normal" text-decoration="none" x="400" y="210">UNREGISTERED</text><text fill="#eeeeee" stroke="none" font-family="Arial" font-size="24px" font-style="normal" font-weight="normal" text-decoration="none" x="400" y="240">UNREGISTERED</text><text fill="#eeeeee" stroke="none" font-family="Arial" font-size="24px" font-style="normal" font-weight="normal" text-decoration="none" x="400" y="270">UNREGISTERED</text><text fill="#eeeeee" stroke="none" font-family="Arial" font-size="24px" font-style="normal" font-weight="normal" text-decoration="none" x="600" y="0">UNREGISTERED</text><text fill="#eeeeee" stroke="none" font-family="Arial" font-size="24px" font-style="normal" font-weight="normal" text-decoration="none" x="600" y="30">UNREGISTERED</text><text fill="#eeeeee" stroke="none" font-family="Arial" font-size="24px" font-style="normal" font-weight="normal" text-decoration="none" x="600" y="60">UNREGISTERED</text><text fill="#eeeeee" stroke="none" font-family="Arial" font-size="24px" font-style="normal" font-weight="normal" text-decoration="none" x="600" y="90">UNREGISTERED</text><text fill="#eeeeee" stroke="none" font-family="Arial" font-size="24px" font-style="normal" font-weight="normal" text-decoration="none" x="600" y="120">UNREGISTERED</text><text fill="#eeeeee" stroke="none" font-family="Arial" font-size="24px" font-style="normal" font-weight="normal" text-decoration="none" x="600" y="150">UNREGISTERED</text><text fill="#eeeeee" stroke="none" font-family="Arial" font-size="24px" font-style="normal" font-weight="normal" text-decoration="none" x="600" y="180">UNREGISTERED</text><text fill="#eeeeee" stroke="none" font-family="Arial" font-size="24px" font-style="normal" font-weight="normal" text-decoration="none" x="600" y="210">UNREGISTERED</text><text fill="#eeeeee" stroke="none" font-family="Arial" font-size="24px" font-style="normal" font-weight="normal" text-decoration="none" x="600" y="240">UNREGISTERED</text><text fill="#eeeeee" stroke="none" font-family="Arial" font-size="24px" font-style="normal" font-weight="normal" text-decoration="none" x="600" y="270">UNREGISTERED</text><g transform="translate(-46,-54) scale(1,1)"><path fill="none" stroke="#000000" d="M 77.925 83.5 C 77.925 74.34587944 85.34587944 66.925 94.5 66.925 C 103.65412056 66.925 111.07499999999999 74.34587944 111.07499999999999 83.5 C 111.07499999999999 92.65412056 103.65412056 100.07499999999999 94.5 100.07499999999999 C 85.34587944 100.07499999999999 77.925 92.65412056 77.925 83.5 Z" stroke-miterlimit="10"/></g><g transform="translate(-46,-54) scale(1,1)"><path fill="none" stroke="#000000" d="M 77.925 100.07499999999999 L 111.07499999999999 100.07499999999999" stroke-miterlimit="10"/></g><g transform="translate(-46,-54) scale(1,1)"><g><path fill="none" stroke="none"/><text fill="#000000" stroke="none" font-family="Arial" font-size="13px" font-style="normal" font-weight="bold" text-decoration="none" x="61.635009765625" y="121">Publicidad</text></g></g><g transform="translate(-46,-54) scale(1,1)"><path fill="none" stroke="#000000" d="M 442.425 155.5 C 442.425 146.34587944 449.84587944000003 138.925 459 138.925 C 468.15412055999997 138.925 475.575 146.34587944 475.575 155.5 C 475.575 164.65412056 468.15412055999997 172.075 459 172.075 C 449.84587944000003 172.075 442.425 164.65412056 442.425 155.5 Z" stroke-miterlimit="10"/></g><g transform="translate(-46,-54) scale(1,1)"><path fill="none" stroke="#000000" d="M 442.425 172.075 L 475.575 172.075" stroke-miterlimit="10"/></g><g transform="translate(-46,-54) scale(1,1)"><g><path fill="none" stroke="none"/><text fill="#000000" stroke="none" font-family="Arial" font-size="13px" font-style="normal" font-weight="bold" text-decoration="none" x="437.3291015625" y="193">Cliente</text></g></g><g transform="translate(-46,-54) scale(1,1)"><path fill="none" stroke="#000000" d="M 448.425 283.5 C 448.425 274.34587944000003 455.84587944000003 266.925 465 266.925 C 474.15412055999997 266.925 481.575 274.34587944000003 481.575 283.5 C 481.575 292.65412055999997 474.15412055999997 300.075 465 300.075 C 455.84587944000003 300.075 448.425 292.65412055999997 448.425 283.5 Z" stroke-miterlimit="10"/></g><g transform="translate(-46,-54) scale(1,1)"><path fill="none" stroke="#000000" d="M 448.425 300.075 L 481.575 300.075" stroke-miterlimit="10"/></g><g transform="translate(-46,-54) scale(1,1)"><g><path fill="none" stroke="none"/><text fill="#000000" stroke="none" font-family="Arial" font-size="13px" font-style="normal" font-weight="bold" text-decoration="none" x="420.5791015625" y="321">Administrador</text></g></g><g transform="translate(-46,-54) scale(1,1)"><path fill="none" stroke="#000000" d="M 241.5958984375 91.5 C 241.5958984375 82.34587944 249.0167778775 74.925 258.1708984375 74.925 C 267.32501899749997 74.925 274.7458984375 82.34587944 274.7458984375 91.5 C 274.7458984375 100.65412056 267.32501899749997 108.07499999999999 258.1708984375 108.07499999999999 C 249.0167778775 108.07499999999999 241.5958984375 100.65412056 241.5958984375 91.5 Z" stroke-miterlimit="10"/></g><g transform="translate(-46,-54) scale(1,1)"><path fill="none" stroke="#000000" d="M 241.5958984375 108.07499999999999 L 274.7458984375 108.07499999999999" stroke-miterlimit="10"/></g><g transform="translate(-46,-54) scale(1,1)"><g><path fill="none" stroke="none"/><text fill="#000000" stroke="none" font-family="Arial" font-size="13px" font-style="normal" font-weight="bold" text-decoration="none" x="236.5" y="129">Accion</text></g></g><g transform="translate(-46,-54) scale(1,1)"><path fill="none" stroke="#000000" d="M 72.4513671875 243.5 C 72.4513671875 234.34587944 79.8722466275 226.925 89.0263671875 226.925 C 98.1804877475 226.925 105.60136718749999 234.34587944 105.60136718749999 243.5 C 105.60136718749999 252.65412056 98.1804877475 260.075 89.0263671875 260.075 C 79.8722466275 260.075 72.4513671875 252.65412056 72.4513671875 243.5 Z" stroke-miterlimit="10"/></g><g transform="translate(-46,-54) scale(1,1)"><path fill="none" stroke="#000000" d="M 72.4513671875 260.075 L 105.60136718749999 260.075" stroke-miterlimit="10"/></g><g transform="translate(-46,-54) scale(1,1)"><g><path fill="none" stroke="none"/><text fill="#000000" stroke="none" font-family="Arial" font-size="13px" font-style="normal" font-weight="bold" text-decoration="none" x="60.5" y="281">Producto</text></g></g><g transform="translate(-46,-54) scale(1,1)"><path fill="none" stroke="#000000" d="M 250.425 243.5 C 250.425 234.34587944 257.84587944000003 226.925 267 226.925 C 276.15412055999997 226.925 283.575 234.34587944 283.575 243.5 C 283.575 252.65412056 276.15412055999997 260.075 267 260.075 C 257.84587944000003 260.075 250.425 252.65412056 250.425 243.5 Z" stroke-miterlimit="10"/></g><g transform="translate(-46,-54) scale(1,1)"><path fill="none" stroke="#000000" d="M 250.425 260.075 L 283.575 260.075" stroke-miterlimit="10"/></g><g transform="translate(-46,-54) scale(1,1)"><g><path fill="none" stroke="none"/><text fill="#000000" stroke="none" font-family="Arial" font-size="13px" font-style="normal" font-weight="bold" text-decoration="none" x="244.614990234375" y="281">Combo</text></g></g><g transform="translate(-46,-54) scale(1,1)"><path fill="none" stroke="#000000" d="M 621.93134765625 219.5 C 621.93134765625 210.34587944 629.35222709625 202.925 638.50634765625 202.925 C 647.66046821625 202.925 655.08134765625 210.34587944 655.08134765625 219.5 C 655.08134765625 228.65412056 647.66046821625 236.075 638.50634765625 236.075 C 629.35222709625 236.075 621.93134765625 228.65412056 621.93134765625 219.5 Z" stroke-miterlimit="10"/></g><g transform="translate(-46,-54) scale(1,1)"><path fill="none" stroke="#000000" d="M 621.93134765625 236.075 L 655.08134765625 236.075" stroke-miterlimit="10"/></g><g transform="translate(-46,-54) scale(1,1)"><g><path fill="none" stroke="none"/><text fill="#000000" stroke="none" font-family="Arial" font-size="13px" font-style="normal" font-weight="bold" text-decoration="none" x="614.305908203125" y="257">Usuario</text></g></g><g transform="translate(-46,-54) scale(1,1)"><path fill="none" stroke="#000000" d="M 487 178 L 607 221" stroke-miterlimit="10"/></g><g transform="translate(-46,-54) scale(1,1)"><path fill="#FFFFFF" stroke="none" d="M 585.0259975406274 222.0692127550154 L 607 221 L 590.7059862615653 206.2180814407703"/></g><g transform="translate(-46,-54) scale(1,1)"><path fill="none" stroke="#000000" d="M 585.0259975406274 222.0692127550154 L 607 221 L 590.7059862615653 206.2180814407703 L 585.0259975406274 222.0692127550154" stroke-miterlimit="10"/></g><g transform="translate(-46,-54) scale(1,1)"><path fill="none" stroke="#000000" d="M 515 278 L 607 243" stroke-miterlimit="10"/></g><g transform="translate(-46,-54) scale(1,1)"><path fill="#FFFFFF" stroke="none" d="M 590.9965210685731 258.0959816537837 L 607 243 L 585.0093605289538 242.3583025210702"/></g><g transform="translate(-46,-54) scale(1,1)"><path fill="none" stroke="#000000" d="M 590.9965210685731 258.0959816537837 L 607 243 L 585.0093605289538 242.3583025210702 L 590.9965210685731 258.0959816537837" stroke-miterlimit="10"/></g><g transform="translate(-46,-54) scale(1,1)"><path fill="none" stroke="#000000" d="M 123 256 L 239 256" stroke-miterlimit="10"/></g><g transform="translate(-46,-54) scale(1,1)"><path fill="#000000" stroke="none" d="M 228.83732514237585 260.209517756016 L 239 256 L 228.83732514237585 251.790482243984 L 217 256"/></g><g transform="translate(-46,-54) scale(1,1)"><path fill="none" stroke="#000000" d="M 228.83732514237585 260.209517756016 L 239 256 L 228.83732514237585 251.790482243984 L 217 256 L 228.83732514237585 260.209517756016" stroke-miterlimit="10"/></g></g></svg>