<?xml version="1.0" encoding="UTF-8" standalone="no"?>
<!DOCTYPE svg PUBLIC "-//W3C//DTD SVG 1.1//EN"
 "http://www.w3.org/Graphics/SVG/1.1/DTD/svg11.dtd">
<!-- Generated by graphviz version 5.0.0 (20220707.1540)
 -->
<!-- Title: dependencies Pages: 1 -->
<svg width="1149pt" height="247pt"
 viewBox="0.00 0.00 1149.00 246.80" xmlns="http://www.w3.org/2000/svg" xmlns:xlink="http://www.w3.org/1999/xlink">
<g id="graph0" class="graph" transform="scale(1 1) rotate(0) translate(4 242.8)">
<title>dependencies</title>
<polygon fill="white" stroke="transparent" points="-4,4 -4,-242.8 1145,-242.8 1145,4 -4,4"/>
<text text-anchor="middle" x="570.5" y="-8.2" font-family="sans-serif" font-size="14.00">dependencies</text>
<g id="clust1" class="cluster">
<title>cluster_AppModule</title>
<polygon fill="none" stroke="black" stroke-dasharray="1,5" points="8,-32.8 8,-230.8 1133,-230.8 1133,-32.8 8,-32.8"/>
</g>
<g id="clust10" class="cluster">
<title>cluster_AppModule_imports</title>
<polygon fill="none" stroke="black" points="981,-40.8 981,-92.8 1125,-92.8 1125,-40.8 981,-40.8"/>
</g>
<g id="clust12" class="cluster">
<title>cluster_AppModule_bootstrap</title>
<polygon fill="none" stroke="black" points="491,-170.8 491,-222.8 615,-222.8 615,-170.8 491,-170.8"/>
</g>
<g id="clust2" class="cluster">
<title>cluster_AppModule_declarations</title>
<polygon fill="none" stroke="black" points="16,-40.8 16,-92.8 973,-92.8 973,-40.8 16,-40.8"/>
</g>
<!-- AppComponent -->
<g id="node1" class="node">
<title>AppComponent</title>
<polygon fill="#ffffb3" stroke="black" points="964.94,-84.8 859.06,-84.8 859.06,-48.8 964.94,-48.8 964.94,-84.8"/>
<text text-anchor="middle" x="912" y="-62.6" font-family="Times,serif" font-size="14.00">AppComponent</text>
</g>
<!-- AppModule -->
<g id="node8" class="node">
<title>AppModule</title>
<polygon fill="#8dd3c7" stroke="black" points="594.66,-149.8 591.66,-153.8 570.66,-153.8 567.66,-149.8 511.34,-149.8 511.34,-113.8 594.66,-113.8 594.66,-149.8"/>
<text text-anchor="middle" x="553" y="-127.6" font-family="Times,serif" font-size="14.00">AppModule</text>
</g>
<!-- AppComponent&#45;&gt;AppModule -->
<g id="edge1" class="edge">
<title>AppComponent&#45;&gt;AppModule</title>
<path fill="none" stroke="black" d="M912,-84.91C912,-104.14 912,-131.8 912,-131.8 912,-131.8 604.88,-131.8 604.88,-131.8"/>
<polygon fill="black" stroke="black" points="604.88,-128.3 594.88,-131.8 604.88,-135.3 604.88,-128.3"/>
</g>
<!-- CabeceraComponent -->
<g id="node2" class="node">
<title>CabeceraComponent</title>
<polygon fill="#ffffb3" stroke="black" points="841.9,-84.8 708.1,-84.8 708.1,-48.8 841.9,-48.8 841.9,-84.8"/>
<text text-anchor="middle" x="775" y="-62.6" font-family="Times,serif" font-size="14.00">CabeceraComponent</text>
</g>
<!-- CabeceraComponent&#45;&gt;AppModule -->
<g id="edge2" class="edge">
<title>CabeceraComponent&#45;&gt;AppModule</title>
<path fill="none" stroke="black" d="M775,-84.83C775,-101.2 775,-122.8 775,-122.8 775,-122.8 604.76,-122.8 604.76,-122.8"/>
<polygon fill="black" stroke="black" points="604.76,-119.3 594.76,-122.8 604.76,-126.3 604.76,-119.3"/>
</g>
<!-- CuerpoComponent -->
<g id="node3" class="node">
<title>CuerpoComponent</title>
<polygon fill="#ffffb3" stroke="black" points="690.05,-84.8 567.95,-84.8 567.95,-48.8 690.05,-48.8 690.05,-84.8"/>
<text text-anchor="middle" x="629" y="-62.6" font-family="Times,serif" font-size="14.00">CuerpoComponent</text>
</g>
<!-- CuerpoComponent&#45;&gt;AppModule -->
<g id="edge3" class="edge">
<title>CuerpoComponent&#45;&gt;AppModule</title>
<path fill="none" stroke="black" d="M581.28,-84.91C581.28,-84.91 581.28,-103.79 581.28,-103.79"/>
<polygon fill="black" stroke="black" points="577.78,-103.79 581.28,-113.79 584.78,-103.79 577.78,-103.79"/>
</g>
<!-- DestacadosComponent -->
<g id="node4" class="node">
<title>DestacadosComponent</title>
<polygon fill="#ffffb3" stroke="black" points="549.58,-84.8 404.42,-84.8 404.42,-48.8 549.58,-48.8 549.58,-84.8"/>
<text text-anchor="middle" x="477" y="-62.6" font-family="Times,serif" font-size="14.00">DestacadosComponent</text>
</g>
<!-- DestacadosComponent&#45;&gt;AppModule -->
<g id="edge4" class="edge">
<title>DestacadosComponent&#45;&gt;AppModule</title>
<path fill="none" stroke="black" d="M530.36,-84.91C530.36,-84.91 530.36,-103.79 530.36,-103.79"/>
<polygon fill="black" stroke="black" points="526.86,-103.79 530.36,-113.79 533.86,-103.79 526.86,-103.79"/>
</g>
<!-- FiltroComponent -->
<g id="node5" class="node">
<title>FiltroComponent</title>
<polygon fill="#ffffb3" stroke="black" points="386.45,-84.8 273.55,-84.8 273.55,-48.8 386.45,-48.8 386.45,-84.8"/>
<text text-anchor="middle" x="330" y="-62.6" font-family="Times,serif" font-size="14.00">FiltroComponent</text>
</g>
<!-- FiltroComponent&#45;&gt;AppModule -->
<g id="edge5" class="edge">
<title>FiltroComponent&#45;&gt;AppModule</title>
<path fill="none" stroke="black" d="M330,-84.83C330,-101.2 330,-122.8 330,-122.8 330,-122.8 501.32,-122.8 501.32,-122.8"/>
<polygon fill="black" stroke="black" points="501.32,-126.3 511.32,-122.8 501.32,-119.3 501.32,-126.3"/>
</g>
<!-- MenuComponent -->
<g id="node6" class="node">
<title>MenuComponent</title>
<polygon fill="#ffffb3" stroke="black" points="255.99,-84.8 142.01,-84.8 142.01,-48.8 255.99,-48.8 255.99,-84.8"/>
<text text-anchor="middle" x="199" y="-62.6" font-family="Times,serif" font-size="14.00">MenuComponent</text>
</g>
<!-- MenuComponent&#45;&gt;AppModule -->
<g id="edge6" class="edge">
<title>MenuComponent&#45;&gt;AppModule</title>
<path fill="none" stroke="black" d="M199,-84.91C199,-104.14 199,-131.8 199,-131.8 199,-131.8 501,-131.8 501,-131.8"/>
<polygon fill="black" stroke="black" points="501,-135.3 511,-131.8 501,-128.3 501,-135.3"/>
</g>
<!-- PieComponent -->
<g id="node7" class="node">
<title>PieComponent</title>
<polygon fill="#ffffb3" stroke="black" points="123.72,-84.8 24.28,-84.8 24.28,-48.8 123.72,-48.8 123.72,-84.8"/>
<text text-anchor="middle" x="74" y="-62.6" font-family="Times,serif" font-size="14.00">PieComponent</text>
</g>
<!-- PieComponent&#45;&gt;AppModule -->
<g id="edge7" class="edge">
<title>PieComponent&#45;&gt;AppModule</title>
<path fill="none" stroke="black" d="M74,-85.09C74,-107.01 74,-140.8 74,-140.8 74,-140.8 501.33,-140.8 501.33,-140.8"/>
<polygon fill="black" stroke="black" points="501.33,-144.3 511.33,-140.8 501.33,-137.3 501.33,-144.3"/>
</g>
<!-- AppComponent  -->
<g id="node10" class="node">
<title>AppComponent </title>
<polygon fill="#80b1d3" stroke="black" points="607.44,-214.8 498.56,-214.8 498.56,-178.8 607.44,-178.8 607.44,-214.8"/>
<text text-anchor="middle" x="553" y="-192.6" font-family="Times,serif" font-size="14.00">AppComponent </text>
</g>
<!-- AppModule&#45;&gt;AppComponent  -->
<g id="edge9" class="edge">
<title>AppModule&#45;&gt;AppComponent </title>
<path fill="none" stroke="black" stroke-dasharray="1,5" d="M553,-149.91C553,-149.91 553,-168.79 553,-168.79"/>
<polygon fill="black" stroke="black" points="549.5,-168.79 553,-178.79 556.5,-168.79 549.5,-168.79"/>
</g>
<!-- AppRoutingModule -->
<g id="node9" class="node">
<title>AppRoutingModule</title>
<polygon fill="#8dd3c7" stroke="black" points="1117.28,-84.8 1114.28,-88.8 1093.28,-88.8 1090.28,-84.8 988.72,-84.8 988.72,-48.8 1117.28,-48.8 1117.28,-84.8"/>
<text text-anchor="middle" x="1053" y="-62.6" font-family="Times,serif" font-size="14.00">AppRoutingModule</text>
</g>
<!-- AppRoutingModule&#45;&gt;AppModule -->
<g id="edge8" class="edge">
<title>AppRoutingModule&#45;&gt;AppModule</title>
<path fill="none" stroke="black" d="M1053,-85.09C1053,-107.01 1053,-140.8 1053,-140.8 1053,-140.8 604.77,-140.8 604.77,-140.8"/>
<polygon fill="black" stroke="black" points="604.77,-137.3 594.77,-140.8 604.77,-144.3 604.77,-137.3"/>
</g>
</g>
</svg>
