<svg version="1.1" xmlns="http://www.w3.org/2000/svg" xmlns:xlink="http://www.w3.org/1999/xlink" width="553" height="348"><defs/><g><text fill="#eeeeee" stroke="none" font-family="Arial" font-size="24px" font-style="normal" font-weight="normal" text-decoration="none" x="0" y="0">UNREGISTERED</text><text fill="#eeeeee" stroke="none" font-family="Arial" font-size="24px" font-style="normal" font-weight="normal" text-decoration="none" x="0" y="30">UNREGISTERED</text><text fill="#eeeeee" stroke="none" font-family="Arial" font-size="24px" font-style="normal" font-weight="normal" text-decoration="none" x="0" y="60">UNREGISTERED</text><text fill="#eeeeee" stroke="none" font-family="Arial" font-size="24px" font-style="normal" font-weight="normal" text-decoration="none" x="0" y="90">UNREGISTERED</text><text fill="#eeeeee" stroke="none" font-family="Arial" font-size="24px" font-style="normal" font-weight="normal" text-decoration="none" x="0" y="120">UNREGISTERED</text><text fill="#eeeeee" stroke="none" font-family="Arial" font-size="24px" font-style="normal" font-weight="normal" text-decoration="none" x="0" y="150">UNREGISTERED</text><text fill="#eeeeee" stroke="none" font-family="Arial" font-size="24px" font-style="normal" font-weight="normal" text-decoration="none" x="0" y="180">UNREGISTERED</text><text fill="#eeeeee" stroke="none" font-family="Arial" font-size="24px" font-style="normal" font-weight="normal" text-decoration="none" x="0" y="210">UNREGISTERED</text><text fill="#eeeeee" stroke="none" font-family="Arial" font-size="24px" font-style="normal" font-weight="normal" text-decoration="none" x="0" y="240">UNREGISTERED</text><text fill="#eeeeee" stroke="none" font-family="Arial" font-size="24px" font-style="normal" font-weight="normal" text-decoration="none" x="0" y="270">UNREGISTERED</text><text fill="#eeeeee" stroke="none" font-family="Arial" font-size="24px" font-style="normal" font-weight="normal" text-decoration="none" x="0" y="300">UNREGISTERED</text><text fill="#eeeeee" stroke="none" font-family="Arial" font-size="24px" font-style="normal" font-weight="normal" text-decoration="none" x="0" y="330">UNREGISTERED</text><text fill="#eeeeee" stroke="none" font-family="Arial" font-size="24px" font-style="normal" font-weight="normal" text-decoration="none" x="200" y="0">UNREGISTERED</text><text fill="#eeeeee" stroke="none" font-family="Arial" font-size="24px" font-style="normal" font-weight="normal" text-decoration="none" x="200" y="30">UNREGISTERED</text><text fill="#eeeeee" stroke="none" font-family="Arial" font-size="24px" font-style="normal" font-weight="normal" text-decoration="none" x="200" y="60">UNREGISTERED</text><text fill="#eeeeee" stroke="none" font-family="Arial" font-size="24px" font-style="normal" font-weight="normal" text-decoration="none" x="200" y="90">UNREGISTERED</text><text fill="#eeeeee" stroke="none" font-family="Arial" font-size="24px" font-style="normal" font-weight="normal" text-decoration="none" x="200" y="120">UNREGISTERED</text><text fill="#eeeeee" stroke="none" font-family="Arial" font-size="24px" font-style="normal" font-weight="normal" text-decoration="none" x="200" y="150">UNREGISTERED</text><text fill="#eeeeee" stroke="none" font-family="Arial" font-size="24px" font-style="normal" font-weight="normal" text-decoration="none" x="200" y="180">UNREGISTERED</text><text fill="#eeeeee" stroke="none" font-family="Arial" font-size="24px" font-style="normal" font-weight="normal" text-decoration="none" x="200" y="210">UNREGISTERED</text><text fill="#eeeeee" stroke="none" font-family="Arial" font-size="24px" font-style="normal" font-weight="normal" text-decoration="none" x="200" y="240">UNREGISTERED</text><text fill="#eeeeee" stroke="none" font-family="Arial" font-size="24px" font-style="normal" font-weight="normal" text-decoration="none" x="200" y="270">UNREGISTERED</text><text fill="#eeeeee" stroke="none" font-family="Arial" font-size="24px" font-style="normal" font-weight="normal" text-decoration="none" x="200" y="300">UNREGISTERED</text><text fill="#eeeeee" stroke="none" font-family="Arial" font-size="24px" font-style="normal" font-weight="normal" text-decoration="none" x="200" y="330">UNREGISTERED</text><text fill="#eeeeee" stroke="none" font-family="Arial" font-size="24px" font-style="normal" font-weight="normal" text-decoration="none" x="400" y="0">UNREGISTERED</text><text fill="#eeeeee" stroke="none" font-family="Arial" font-size="24px" font-style="normal" font-weight="normal" text-decoration="none" x="400" y="30">UNREGISTERED</text><text fill="#eeeeee" stroke="none" font-family="Arial" font-size="24px" font-style="normal" font-weight="normal" text-decoration="none" x="400" y="60">UNREGISTERED</text><text fill="#eeeeee" stroke="none" font-family="Arial" font-size="24px" font-style="normal" font-weight="normal" text-decoration="none" x="400" y="90">UNREGISTERED</text><text fill="#eeeeee" stroke="none" font-family="Arial" font-size="24px" font-style="normal" font-weight="normal" text-decoration="none" x="400" y="120">UNREGISTERED</text><text fill="#eeeeee" stroke="none" font-family="Arial" font-size="24px" font-style="normal" font-weight="normal" text-decoration="none" x="400" y="150">UNREGISTERED</text><text fill="#eeeeee" stroke="none" font-family="Arial" font-size="24px" font-style="normal" font-weight="normal" text-decoration="none" x="400" y="180">UNREGISTERED</text><text fill="#eeeeee" stroke="none" font-family="Arial" font-size="24px" font-style="normal" font-weight="normal" text-decoration="none" x="400" y="210">UNREGISTERED</text><text fill="#eeeeee" stroke="none" font-family="Arial" font-size="24px" font-style="normal" font-weight="normal" text-decoration="none" x="400" y="240">UNREGISTERED</text><text fill="#eeeeee" stroke="none" font-family="Arial" font-size="24px" font-style="normal" font-weight="normal" text-decoration="none" x="400" y="270">UNREGISTERED</text><text fill="#eeeeee" stroke="none" font-family="Arial" font-size="24px" font-style="normal" font-weight="normal" text-decoration="none" x="400" y="300">UNREGISTERED</text><text fill="#eeeeee" stroke="none" font-family="Arial" font-size="24px" font-style="normal" font-weight="normal" text-decoration="none" x="400" y="330">UNREGISTERED</text><g transform="translate(-70,-22) scale(1,1)"><path fill="none" stroke="#000000" d="M 395.8 51.5 C 395.8 42.884357120000004 402.78435712 35.9 411.4 35.9 C 420.01564288 35.9 427 42.884357120000004 427 51.5 C 427 60.115642879999996 420.01564288 67.1 411.4 67.1 C 402.78435712 67.1 395.8 60.115642879999996 395.8 51.5 Z" stroke-miterlimit="10"/></g><g transform="translate(-70,-22) scale(1,1)"><path fill="none" stroke="#000000" d="M 388 35.9 L 388 67.1" stroke-miterlimit="10"/></g><g transform="translate(-70,-22) scale(1,1)"><path fill="none" stroke="#000000" d="M 388 51.49999999999999 L 395.8 51.49999999999999" stroke-miterlimit="10"/></g><g transform="translate(-70,-22) scale(1,1)"><g><path fill="none" stroke="none"/><text fill="#000000" stroke="none" font-family="Arial" font-size="13px" font-style="normal" font-weight="bold" text-decoration="none" x="356.5" y="89">PaginaPrincipal</text></g></g><g transform="translate(-70,-22) scale(1,1)"><path fill="none" stroke="#000000" d="M 144.3 211.5 C 144.3 202.88435712 151.28435712 195.9 159.9 195.9 C 168.51564288 195.9 175.5 202.88435712 175.5 211.5 C 175.5 220.11564288 168.51564288 227.1 159.9 227.1 C 151.28435712 227.1 144.3 220.11564288 144.3 211.5 Z" stroke-miterlimit="10"/></g><g transform="translate(-70,-22) scale(1,1)"><path fill="none" stroke="#000000" d="M 136.5 195.9 L 136.5 227.1" stroke-miterlimit="10"/></g><g transform="translate(-70,-22) scale(1,1)"><path fill="none" stroke="#000000" d="M 136.5 211.5 L 144.3 211.5" stroke-miterlimit="10"/></g><g transform="translate(-70,-22) scale(1,1)"><g><path fill="none" stroke="none"/><text fill="#000000" stroke="none" font-family="Arial" font-size="13px" font-style="normal" font-weight="bold" text-decoration="none" x="84.5" y="249">GestionarPublicidades</text></g></g><g transform="translate(-70,-22) scale(1,1)"><path fill="none" stroke="#000000" d="M 144.8 315.5 C 144.8 306.88435712 151.78435712 299.9 160.4 299.9 C 169.01564288 299.9 176 306.88435712 176 315.5 C 176 324.11564288 169.01564288 331.09999999999997 160.4 331.09999999999997 C 151.78435712 331.09999999999997 144.8 324.11564288 144.8 315.5 Z" stroke-miterlimit="10"/></g><g transform="translate(-70,-22) scale(1,1)"><path fill="none" stroke="#000000" d="M 137 299.9 L 137 331.09999999999997" stroke-miterlimit="10"/></g><g transform="translate(-70,-22) scale(1,1)"><path fill="none" stroke="#000000" d="M 137 315.5 L 144.8 315.5" stroke-miterlimit="10"/></g><g transform="translate(-70,-22) scale(1,1)"><g><path fill="none" stroke="none"/><text fill="#000000" stroke="none" font-family="Arial" font-size="13px" font-style="normal" font-weight="bold" text-decoration="none" x="100.5" y="353">GestionarCombos</text></g></g><g transform="translate(-70,-22) scale(1,1)"><path fill="none" stroke="#000000" d="M 342.8 211.5 C 342.8 202.88435712 349.78435712 195.9 358.4 195.9 C 367.01564288 195.9 374 202.88435712 374 211.5 C 374 220.11564288 367.01564288 227.1 358.4 227.1 C 349.78435712 227.1 342.8 220.11564288 342.8 211.5 Z" stroke-miterlimit="10"/></g><g transform="translate(-70,-22) scale(1,1)"><path fill="none" stroke="#000000" d="M 335 195.9 L 335 227.1" stroke-miterlimit="10"/></g><g transform="translate(-70,-22) scale(1,1)"><path fill="none" stroke="#000000" d="M 335 211.5 L 342.8 211.5" stroke-miterlimit="10"/></g><g transform="translate(-70,-22) scale(1,1)"><g><path fill="none" stroke="none"/><text fill="#000000" stroke="none" font-family="Arial" font-size="13px" font-style="normal" font-weight="bold" text-decoration="none" x="292.5" y="249">GestionarProductos</text></g></g><g transform="translate(-70,-22) scale(1,1)"><path fill="none" stroke="#000000" d="M 154.3 123.5 C 154.3 114.88435712 161.28435712 107.9 169.9 107.9 C 178.51564288 107.9 185.5 114.88435712 185.5 123.5 C 185.5 132.11564288 178.51564288 139.1 169.9 139.1 C 161.28435712 139.1 154.3 132.11564288 154.3 123.5 Z" stroke-miterlimit="10"/></g><g transform="translate(-70,-22) scale(1,1)"><path fill="none" stroke="#000000" d="M 146.5 107.9 L 146.5 139.1" stroke-miterlimit="10"/></g><g transform="translate(-70,-22) scale(1,1)"><path fill="none" stroke="#000000" d="M 146.5 123.5 L 154.3 123.5" stroke-miterlimit="10"/></g><g transform="translate(-70,-22) scale(1,1)"><g><path fill="none" stroke="none"/><text fill="#000000" stroke="none" font-family="Arial" font-size="13px" font-style="normal" font-weight="bold" text-decoration="none" x="108.5" y="161">GestionarUsuarios</text></g></g><g transform="translate(-70,-22) scale(1,1)"><path fill="none" stroke="#000000" d="M 354.8 315.5 C 354.8 306.88435712 361.78435712 299.9 370.4 299.9 C 379.01564288 299.9 386 306.88435712 386 315.5 C 386 324.11564288 379.01564288 331.09999999999997 370.4 331.09999999999997 C 361.78435712 331.09999999999997 354.8 324.11564288 354.8 315.5 Z" stroke-miterlimit="10"/></g><g transform="translate(-70,-22) scale(1,1)"><path fill="none" stroke="#000000" d="M 347 299.9 L 347 331.09999999999997" stroke-miterlimit="10"/></g><g transform="translate(-70,-22) scale(1,1)"><path fill="none" stroke="#000000" d="M 347 315.5 L 354.8 315.5" stroke-miterlimit="10"/></g><g transform="translate(-70,-22) scale(1,1)"><g><path fill="none" stroke="none"/><text fill="#000000" stroke="none" font-family="Arial" font-size="13px" font-style="normal" font-weight="bold" text-decoration="none" x="338" y="353">Catalogo</text></g></g><g transform="translate(-70,-22) scale(1,1)"><path fill="none" stroke="#000000" d="M 546.8 131.5 C 546.8 122.88435712 553.78435712 115.9 562.4 115.9 C 571.01564288 115.9 578 122.88435712 578 131.5 C 578 140.11564288 571.01564288 147.1 562.4 147.1 C 553.78435712 147.1 546.8 140.11564288 546.8 131.5 Z" stroke-miterlimit="10"/></g><g transform="translate(-70,-22) scale(1,1)"><path fill="none" stroke="#000000" d="M 539 115.9 L 539 147.1" stroke-miterlimit="10"/></g><g transform="translate(-70,-22) scale(1,1)"><path fill="none" stroke="#000000" d="M 539 131.5 L 546.8 131.5" stroke-miterlimit="10"/></g><g transform="translate(-70,-22) scale(1,1)"><g><path fill="none" stroke="none"/><text fill="#000000" stroke="none" font-family="Arial" font-size="13px" font-style="normal" font-weight="bold" text-decoration="none" x="508.5" y="169">PaginaEmpresa</text></g></g><g transform="translate(-70,-22) scale(1,1)"><path fill="none" stroke="#000000" d="M 525.8 243.5 C 525.8 234.88435712 532.78435712 227.9 541.4 227.9 C 550.01564288 227.9 557 234.88435712 557 243.5 C 557 252.11564288 550.01564288 259.1 541.4 259.1 C 532.78435712 259.1 525.8 252.11564288 525.8 243.5 Z" stroke-miterlimit="10"/></g><g transform="translate(-70,-22) scale(1,1)"><path fill="none" stroke="#000000" d="M 518 227.9 L 518 259.1" stroke-miterlimit="10"/></g><g transform="translate(-70,-22) scale(1,1)"><path fill="none" stroke="#000000" d="M 518 243.5 L 525.8 243.5" stroke-miterlimit="10"/></g><g transform="translate(-70,-22) scale(1,1)"><g><path fill="none" stroke="none"/><text fill="#000000" stroke="none" font-family="Arial" font-size="13px" font-style="normal" font-weight="bold" text-decoration="none" x="468.5" y="281">FormularioPublicidad</text></g></g></g></svg>