<svg version="1.1" xmlns="http://www.w3.org/2000/svg" xmlns:xlink="http://www.w3.org/1999/xlink" width="482.57177734375" height="300"><defs/><g><text fill="#eeeeee" stroke="none" font-family="Arial" font-size="24px" font-style="normal" font-weight="normal" text-decoration="none" x="0" y="0">UNREGISTERED</text><text fill="#eeeeee" stroke="none" font-family="Arial" font-size="24px" font-style="normal" font-weight="normal" text-decoration="none" x="0" y="30">UNREGISTERED</text><text fill="#eeeeee" stroke="none" font-family="Arial" font-size="24px" font-style="normal" font-weight="normal" text-decoration="none" x="0" y="60">UNREGISTERED</text><text fill="#eeeeee" stroke="none" font-family="Arial" font-size="24px" font-style="normal" font-weight="normal" text-decoration="none" x="0" y="90">UNREGISTERED</text><text fill="#eeeeee" stroke="none" font-family="Arial" font-size="24px" font-style="normal" font-weight="normal" text-decoration="none" x="0" y="120">UNREGISTERED</text><text fill="#eeeeee" stroke="none" font-family="Arial" font-size="24px" font-style="normal" font-weight="normal" text-decoration="none" x="0" y="150">UNREGISTERED</text><text fill="#eeeeee" stroke="none" font-family="Arial" font-size="24px" font-style="normal" font-weight="normal" text-decoration="none" x="0" y="180">UNREGISTERED</text><text fill="#eeeeee" stroke="none" font-family="Arial" font-size="24px" font-style="normal" font-weight="normal" text-decoration="none" x="0" y="210">UNREGISTERED</text><text fill="#eeeeee" stroke="none" font-family="Arial" font-size="24px" font-style="normal" font-weight="normal" text-decoration="none" x="0" y="240">UNREGISTERED</text><text fill="#eeeeee" stroke="none" font-family="Arial" font-size="24px" font-style="normal" font-weight="normal" text-decoration="none" x="0" y="270">UNREGISTERED</text><text fill="#eeeeee" stroke="none" font-family="Arial" font-size="24px" font-style="normal" font-weight="normal" text-decoration="none" x="200" y="0">UNREGISTERED</text><text fill="#eeeeee" stroke="none" font-family="Arial" font-size="24px" font-style="normal" font-weight="normal" text-decoration="none" x="200" y="30">UNREGISTERED</text><text fill="#eeeeee" stroke="none" font-family="Arial" font-size="24px" font-style="normal" font-weight="normal" text-decoration="none" x="200" y="60">UNREGISTERED</text><text fill="#eeeeee" stroke="none" font-family="Arial" font-size="24px" font-style="normal" font-weight="normal" text-decoration="none" x="200" y="90">UNREGISTERED</text><text fill="#eeeeee" stroke="none" font-family="Arial" font-size="24px" font-style="normal" font-weight="normal" text-decoration="none" x="200" y="120">UNREGISTERED</text><text fill="#eeeeee" stroke="none" font-family="Arial" font-size="24px" font-style="normal" font-weight="normal" text-decoration="none" x="200" y="150">UNREGISTERED</text><text fill="#eeeeee" stroke="none" font-family="Arial" font-size="24px" font-style="normal" font-weight="normal" text-decoration="none" x="200" y="180">UNREGISTERED</text><text fill="#eeeeee" stroke="none" font-family="Arial" font-size="24px" font-style="normal" font-weight="normal" text-decoration="none" x="200" y="210">UNREGISTERED</text><text fill="#eeeeee" stroke="none" font-family="Arial" font-size="24px" font-style="normal" font-weight="normal" text-decoration="none" x="200" y="240">UNREGISTERED</text><text fill="#eeeeee" stroke="none" font-family="Arial" font-size="24px" font-style="normal" font-weight="normal" text-decoration="none" x="200" y="270">UNREGISTERED</text><text fill="#eeeeee" stroke="none" font-family="Arial" font-size="24px" font-style="normal" font-weight="normal" text-decoration="none" x="400" y="0">UNREGISTERED</text><text fill="#eeeeee" stroke="none" font-family="Arial" font-size="24px" font-style="normal" font-weight="normal" text-decoration="none" x="400" y="30">UNREGISTERED</text><text fill="#eeeeee" stroke="none" font-family="Arial" font-size="24px" font-style="normal" font-weight="normal" text-decoration="none" x="400" y="60">UNREGISTERED</text><text fill="#eeeeee" stroke="none" font-family="Arial" font-size="24px" font-style="normal" font-weight="normal" text-decoration="none" x="400" y="90">UNREGISTERED</text><text fill="#eeeeee" stroke="none" font-family="Arial" font-size="24px" font-style="normal" font-weight="normal" text-decoration="none" x="400" y="120">UNREGISTERED</text><text fill="#eeeeee" stroke="none" font-family="Arial" font-size="24px" font-style="normal" font-weight="normal" text-decoration="none" x="400" y="150">UNREGISTERED</text><text fill="#eeeeee" stroke="none" font-family="Arial" font-size="24px" font-style="normal" font-weight="normal" text-decoration="none" x="400" y="180">UNREGISTERED</text><text fill="#eeeeee" stroke="none" font-family="Arial" font-size="24px" font-style="normal" font-weight="normal" text-decoration="none" x="400" y="210">UNREGISTERED</text><text fill="#eeeeee" stroke="none" font-family="Arial" font-size="24px" font-style="normal" font-weight="normal" text-decoration="none" x="400" y="240">UNREGISTERED</text><text fill="#eeeeee" stroke="none" font-family="Arial" font-size="24px" font-style="normal" font-weight="normal" text-decoration="none" x="400" y="270">UNREGISTERED</text><g transform="translate(-46,-54) scale(1,1)"><path fill="none" stroke="#000000" d="M 102.875 91.5 C 102.875 83.4228348 109.4228348 76.875 117.5 76.875 C 125.5771652 76.875 132.125 83.4228348 132.125 91.5 C 132.125 99.5771652 125.5771652 106.125 117.5 106.125 C 109.4228348 106.125 102.875 99.5771652 102.875 91.5 Z" stroke-miterlimit="10"/></g><g transform="translate(-46,-54) scale(1,1)"><path fill="none" stroke="#000000" d="M 117.5 76.875 L 122.375 72" stroke-miterlimit="10"/></g><g transform="translate(-46,-54) scale(1,1)"><path fill="none" stroke="#000000" d="M 117.5 76.875 L 122.375 81.75" stroke-miterlimit="10"/></g><g transform="translate(-46,-54) scale(1,1)"><g><path fill="none" stroke="none"/><text fill="#000000" stroke="none" font-family="Arial" font-size="13px" font-style="normal" font-weight="bold" text-decoration="none" x="61.529541015625" y="129">ControlPublicidad</text></g></g><g transform="translate(-46,-54) scale(1,1)"><path fill="none" stroke="#000000" d="M 102.98046875 195.5 C 102.98046875 187.4228348 109.52830355 180.875 117.60546875 180.875 C 125.68263395 180.875 132.23046875 187.4228348 132.23046875 195.5 C 132.23046875 203.5771652 125.68263395 210.125 117.60546875 210.125 C 109.52830355 210.125 102.98046875 203.5771652 102.98046875 195.5 Z" stroke-miterlimit="10"/></g><g transform="translate(-46,-54) scale(1,1)"><path fill="none" stroke="#000000" d="M 117.60546875 180.875 L 122.48046875 176" stroke-miterlimit="10"/></g><g transform="translate(-46,-54) scale(1,1)"><path fill="none" stroke="#000000" d="M 117.60546875 180.875 L 122.48046875 185.75" stroke-miterlimit="10"/></g><g transform="translate(-46,-54) scale(1,1)"><g><path fill="none" stroke="none"/><text fill="#000000" stroke="none" font-family="Arial" font-size="13px" font-style="normal" font-weight="bold" text-decoration="none" x="68.5" y="233">ControlCombos</text></g></g><g transform="translate(-46,-54) scale(1,1)"><path fill="none" stroke="#000000" d="M 97.5068359375 299.5 C 97.5068359375 291.4228348 104.0546707375 284.875 112.1318359375 284.875 C 120.2090011375 284.875 126.7568359375 291.4228348 126.7568359375 299.5 C 126.7568359375 307.5771652 120.2090011375 314.125 112.1318359375 314.125 C 104.0546707375 314.125 97.5068359375 307.5771652 97.5068359375 299.5 Z" stroke-miterlimit="10"/></g><g transform="translate(-46,-54) scale(1,1)"><path fill="none" stroke="#000000" d="M 112.1318359375 284.875 L 117.0068359375 280" stroke-miterlimit="10"/></g><g transform="translate(-46,-54) scale(1,1)"><path fill="none" stroke="#000000" d="M 112.1318359375 284.875 L 117.0068359375 289.75" stroke-miterlimit="10"/></g><g transform="translate(-46,-54) scale(1,1)"><g><path fill="none" stroke="none"/><text fill="#000000" stroke="none" font-family="Arial" font-size="13px" font-style="normal" font-weight="bold" text-decoration="none" x="60.5" y="337">ControlProducto</text></g></g><g transform="translate(-46,-54) scale(1,1)"><path fill="none" stroke="#000000" d="M 253.180908203125 195.5 C 253.180908203125 187.4228348 259.728743003125 180.875 267.805908203125 180.875 C 275.883073403125 180.875 282.430908203125 187.4228348 282.430908203125 195.5 C 282.430908203125 203.5771652 275.883073403125 210.125 267.805908203125 210.125 C 259.728743003125 210.125 253.180908203125 203.5771652 253.180908203125 195.5 Z" stroke-miterlimit="10"/></g><g transform="translate(-46,-54) scale(1,1)"><path fill="none" stroke="#000000" d="M 267.805908203125 180.875 L 272.680908203125 176" stroke-miterlimit="10"/></g><g transform="translate(-46,-54) scale(1,1)"><path fill="none" stroke="#000000" d="M 267.805908203125 180.875 L 272.680908203125 185.75" stroke-miterlimit="10"/></g><g transform="translate(-46,-54) scale(1,1)"><g><path fill="none" stroke="none"/><text fill="#000000" stroke="none" font-family="Arial" font-size="13px" font-style="normal" font-weight="bold" text-decoration="none" x="220.5" y="233">ControlUsuario</text></g></g><g transform="translate(-46,-54) scale(1,1)"><path fill="none" stroke="#000000" d="M 269.875 83.5 C 269.875 75.4228348 276.4228348 68.875 284.5 68.875 C 292.5771652 68.875 299.125 75.4228348 299.125 83.5 C 299.125 91.5771652 292.5771652 98.125 284.5 98.125 C 276.4228348 98.125 269.875 91.5771652 269.875 83.5 Z" stroke-miterlimit="10"/></g><g transform="translate(-46,-54) scale(1,1)"><path fill="none" stroke="#000000" d="M 284.5 68.875 L 289.375 64" stroke-miterlimit="10"/></g><g transform="translate(-46,-54) scale(1,1)"><path fill="none" stroke="#000000" d="M 284.5 68.875 L 289.375 73.75" stroke-miterlimit="10"/></g><g transform="translate(-46,-54) scale(1,1)"><g><path fill="none" stroke="none"/><text fill="#000000" stroke="none" font-family="Arial" font-size="13px" font-style="normal" font-weight="bold" text-decoration="none" x="239.7236328125" y="121">ControlAccion</text></g></g><g transform="translate(-46,-54) scale(1,1)"><path fill="none" stroke="#000000" d="M 241.4013671875 299.5 C 241.4013671875 291.4228348 247.9492019875 284.875 256.0263671875 284.875 C 264.1035323875 284.875 270.6513671875 291.4228348 270.6513671875 299.5 C 270.6513671875 307.5771652 264.1035323875 314.125 256.0263671875 314.125 C 247.9492019875 314.125 241.4013671875 307.5771652 241.4013671875 299.5 Z" stroke-miterlimit="10"/></g><g transform="translate(-46,-54) scale(1,1)"><path fill="none" stroke="#000000" d="M 256.0263671875 284.875 L 260.9013671875 280" stroke-miterlimit="10"/></g><g transform="translate(-46,-54) scale(1,1)"><path fill="none" stroke="#000000" d="M 256.0263671875 284.875 L 260.9013671875 289.75" stroke-miterlimit="10"/></g><g transform="translate(-46,-54) scale(1,1)"><g><path fill="none" stroke="none"/><text fill="#000000" stroke="none" font-family="Arial" font-size="13px" font-style="normal" font-weight="bold" text-decoration="none" x="188.5" y="337">ControlAdministrador</text></g></g><g transform="translate(-46,-54) scale(1,1)"><path fill="none" stroke="#000000" d="M 419.375 83.5 C 419.375 75.4228348 425.9228348 68.875 434 68.875 C 442.0771652 68.875 448.625 75.4228348 448.625 83.5 C 448.625 91.5771652 442.0771652 98.125 434 98.125 C 425.9228348 98.125 419.375 91.5771652 419.375 83.5 Z" stroke-miterlimit="10"/></g><g transform="translate(-46,-54) scale(1,1)"><path fill="none" stroke="#000000" d="M 434 68.875 L 438.875 64" stroke-miterlimit="10"/></g><g transform="translate(-46,-54) scale(1,1)"><path fill="none" stroke="#000000" d="M 434 68.875 L 438.875 73.75" stroke-miterlimit="10"/></g><g transform="translate(-46,-54) scale(1,1)"><g><path fill="none" stroke="none"/><text fill="#000000" stroke="none" font-family="Arial" font-size="13px" font-style="normal" font-weight="bold" text-decoration="none" x="389.2236328125" y="121">ControlCliente</text></g></g><g transform="translate(-46,-54) scale(1,1)"><path fill="none" stroke="#000000" d="M 428.660888671875 195.5 C 428.660888671875 187.4228348 435.208723471875 180.875 443.285888671875 180.875 C 451.363053871875 180.875 457.910888671875 187.4228348 457.910888671875 195.5 C 457.910888671875 203.5771652 451.363053871875 210.125 443.285888671875 210.125 C 435.208723471875 210.125 428.660888671875 203.5771652 428.660888671875 195.5 Z" stroke-miterlimit="10"/></g><g transform="translate(-46,-54) scale(1,1)"><path fill="none" stroke="#000000" d="M 443.285888671875 180.875 L 448.160888671875 176" stroke-miterlimit="10"/></g><g transform="translate(-46,-54) scale(1,1)"><path fill="none" stroke="#000000" d="M 443.285888671875 180.875 L 448.160888671875 185.75" stroke-miterlimit="10"/></g><g transform="translate(-46,-54) scale(1,1)"><g><path fill="none" stroke="none"/><text fill="#000000" stroke="none" font-family="Arial" font-size="13px" font-style="normal" font-weight="bold" text-decoration="none" x="372.5" y="233">ControladorCategorias</text></g></g></g></svg>