<svg version="1.1" xmlns="http://www.w3.org/2000/svg" xmlns:xlink="http://www.w3.org/1999/xlink" width="464" height="308"><defs/><g><text fill="#eeeeee" stroke="none" font-family="Arial" font-size="24px" font-style="normal" font-weight="normal" text-decoration="none" x="0" y="0">UNREGISTERED</text><text fill="#eeeeee" stroke="none" font-family="Arial" font-size="24px" font-style="normal" font-weight="normal" text-decoration="none" x="0" y="30">UNREGISTERED</text><text fill="#eeeeee" stroke="none" font-family="Arial" font-size="24px" font-style="normal" font-weight="normal" text-decoration="none" x="0" y="60">UNREGISTERED</text><text fill="#eeeeee" stroke="none" font-family="Arial" font-size="24px" font-style="normal" font-weight="normal" text-decoration="none" x="0" y="90">UNREGISTERED</text><text fill="#eeeeee" stroke="none" font-family="Arial" font-size="24px" font-style="normal" font-weight="normal" text-decoration="none" x="0" y="120">UNREGISTERED</text><text fill="#eeeeee" stroke="none" font-family="Arial" font-size="24px" font-style="normal" font-weight="normal" text-decoration="none" x="0" y="150">UNREGISTERED</text><text fill="#eeeeee" stroke="none" font-family="Arial" font-size="24px" font-style="normal" font-weight="normal" text-decoration="none" x="0" y="180">UNREGISTERED</text><text fill="#eeeeee" stroke="none" font-family="Arial" font-size="24px" font-style="normal" font-weight="normal" text-decoration="none" x="0" y="210">UNREGISTERED</text><text fill="#eeeeee" stroke="none" font-family="Arial" font-size="24px" font-style="normal" font-weight="normal" text-decoration="none" x="0" y="240">UNREGISTERED</text><text fill="#eeeeee" stroke="none" font-family="Arial" font-size="24px" font-style="normal" font-weight="normal" text-decoration="none" x="0" y="270">UNREGISTERED</text><text fill="#eeeeee" stroke="none" font-family="Arial" font-size="24px" font-style="normal" font-weight="normal" text-decoration="none" x="0" y="300">UNREGISTERED</text><text fill="#eeeeee" stroke="none" font-family="Arial" font-size="24px" font-style="normal" font-weight="normal" text-decoration="none" x="200" y="0">UNREGISTERED</text><text fill="#eeeeee" stroke="none" font-family="Arial" font-size="24px" font-style="normal" font-weight="normal" text-decoration="none" x="200" y="30">UNREGISTERED</text><text fill="#eeeeee" stroke="none" font-family="Arial" font-size="24px" font-style="normal" font-weight="normal" text-decoration="none" x="200" y="60">UNREGISTERED</text><text fill="#eeeeee" stroke="none" font-family="Arial" font-size="24px" font-style="normal" font-weight="normal" text-decoration="none" x="200" y="90">UNREGISTERED</text><text fill="#eeeeee" stroke="none" font-family="Arial" font-size="24px" font-style="normal" font-weight="normal" text-decoration="none" x="200" y="120">UNREGISTERED</text><text fill="#eeeeee" stroke="none" font-family="Arial" font-size="24px" font-style="normal" font-weight="normal" text-decoration="none" x="200" y="150">UNREGISTERED</text><text fill="#eeeeee" stroke="none" font-family="Arial" font-size="24px" font-style="normal" font-weight="normal" text-decoration="none" x="200" y="180">UNREGISTERED</text><text fill="#eeeeee" stroke="none" font-family="Arial" font-size="24px" font-style="normal" font-weight="normal" text-decoration="none" x="200" y="210">UNREGISTERED</text><text fill="#eeeeee" stroke="none" font-family="Arial" font-size="24px" font-style="normal" font-weight="normal" text-decoration="none" x="200" y="240">UNREGISTERED</text><text fill="#eeeeee" stroke="none" font-family="Arial" font-size="24px" font-style="normal" font-weight="normal" text-decoration="none" x="200" y="270">UNREGISTERED</text><text fill="#eeeeee" stroke="none" font-family="Arial" font-size="24px" font-style="normal" font-weight="normal" text-decoration="none" x="200" y="300">UNREGISTERED</text><text fill="#eeeeee" stroke="none" font-family="Arial" font-size="24px" font-style="normal" font-weight="normal" text-decoration="none" x="400" y="0">UNREGISTERED</text><text fill="#eeeeee" stroke="none" font-family="Arial" font-size="24px" font-style="normal" font-weight="normal" text-decoration="none" x="400" y="30">UNREGISTERED</text><text fill="#eeeeee" stroke="none" font-family="Arial" font-size="24px" font-style="normal" font-weight="normal" text-decoration="none" x="400" y="60">UNREGISTERED</text><text fill="#eeeeee" stroke="none" font-family="Arial" font-size="24px" font-style="normal" font-weight="normal" text-decoration="none" x="400" y="90">UNREGISTERED</text><text fill="#eeeeee" stroke="none" font-family="Arial" font-size="24px" font-style="normal" font-weight="normal" text-decoration="none" x="400" y="120">UNREGISTERED</text><text fill="#eeeeee" stroke="none" font-family="Arial" font-size="24px" font-style="normal" font-weight="normal" text-decoration="none" x="400" y="150">UNREGISTERED</text><text fill="#eeeeee" stroke="none" font-family="Arial" font-size="24px" font-style="normal" font-weight="normal" text-decoration="none" x="400" y="180">UNREGISTERED</text><text fill="#eeeeee" stroke="none" font-family="Arial" font-size="24px" font-style="normal" font-weight="normal" text-decoration="none" x="400" y="210">UNREGISTERED</text><text fill="#eeeeee" stroke="none" font-family="Arial" font-size="24px" font-style="normal" font-weight="normal" text-decoration="none" x="400" y="240">UNREGISTERED</text><text fill="#eeeeee" stroke="none" font-family="Arial" font-size="24px" font-style="normal" font-weight="normal" text-decoration="none" x="400" y="270">UNREGISTERED</text><text fill="#eeeeee" stroke="none" font-family="Arial" font-size="24px" font-style="normal" font-weight="normal" text-decoration="none" x="400" y="300">UNREGISTERED</text><g transform="translate(-46,-62) scale(1,1)"><path fill="none" stroke="#000000" d="M 102.875 91.5 C 102.875 83.4228348 109.4228348 76.875 117.5 76.875 C 125.5771652 76.875 132.125 83.4228348 132.125 91.5 C 132.125 99.5771652 125.5771652 106.125 117.5 106.125 C 109.4228348 106.125 102.875 99.5771652 102.875 91.5 Z" stroke-miterlimit="10"/></g><g transform="translate(-46,-62) scale(1,1)"><path fill="none" stroke="#000000" d="M 117.5 76.875 L 122.375 72" stroke-miterlimit="10"/></g><g transform="translate(-46,-62) scale(1,1)"><path fill="none" stroke="#000000" d="M 117.5 76.875 L 122.375 81.75" stroke-miterlimit="10"/></g><g transform="translate(-46,-62) scale(1,1)"><g><path fill="none" stroke="none"/><text fill="#000000" stroke="none" font-family="Arial" font-size="13px" font-style="normal" font-weight="bold" text-decoration="none" x="60.5" y="129">ControlPublicidad</text></g></g><g transform="translate(-46,-62) scale(1,1)"><path fill="none" stroke="#000000" d="M 118.375 187.5 C 118.375 179.4228348 124.9228348 172.875 133 172.875 C 141.0771652 172.875 147.625 179.4228348 147.625 187.5 C 147.625 195.5771652 141.0771652 202.125 133 202.125 C 124.9228348 202.125 118.375 195.5771652 118.375 187.5 Z" stroke-miterlimit="10"/></g><g transform="translate(-46,-62) scale(1,1)"><path fill="none" stroke="#000000" d="M 133 172.875 L 137.875 168" stroke-miterlimit="10"/></g><g transform="translate(-46,-62) scale(1,1)"><path fill="none" stroke="#000000" d="M 133 172.875 L 137.875 177.75" stroke-miterlimit="10"/></g><g transform="translate(-46,-62) scale(1,1)"><g><path fill="none" stroke="none"/><text fill="#000000" stroke="none" font-family="Arial" font-size="13px" font-style="normal" font-weight="bold" text-decoration="none" x="84.5" y="225">ControlCombos</text></g></g><g transform="translate(-46,-62) scale(1,1)"><path fill="none" stroke="#000000" d="M 105.375 299.5 C 105.375 291.4228348 111.9228348 284.875 120 284.875 C 128.0771652 284.875 134.625 291.4228348 134.625 299.5 C 134.625 307.5771652 128.0771652 314.125 120 314.125 C 111.9228348 314.125 105.375 307.5771652 105.375 299.5 Z" stroke-miterlimit="10"/></g><g transform="translate(-46,-62) scale(1,1)"><path fill="none" stroke="#000000" d="M 120 284.875 L 124.875 280" stroke-miterlimit="10"/></g><g transform="translate(-46,-62) scale(1,1)"><path fill="none" stroke="#000000" d="M 120 284.875 L 124.875 289.75" stroke-miterlimit="10"/></g><g transform="translate(-46,-62) scale(1,1)"><g><path fill="none" stroke="none"/><text fill="#000000" stroke="none" font-family="Arial" font-size="13px" font-style="normal" font-weight="bold" text-decoration="none" x="68.5" y="337">ControlProducto</text></g></g><g transform="translate(-46,-62) scale(1,1)"><path fill="none" stroke="#000000" d="M 284.875 195.5 C 284.875 187.4228348 291.4228348 180.875 299.5 180.875 C 307.5771652 180.875 314.125 187.4228348 314.125 195.5 C 314.125 203.5771652 307.5771652 210.125 299.5 210.125 C 291.4228348 210.125 284.875 203.5771652 284.875 195.5 Z" stroke-miterlimit="10"/></g><g transform="translate(-46,-62) scale(1,1)"><path fill="none" stroke="#000000" d="M 299.5 180.875 L 304.375 176" stroke-miterlimit="10"/></g><g transform="translate(-46,-62) scale(1,1)"><path fill="none" stroke="#000000" d="M 299.5 180.875 L 304.375 185.75" stroke-miterlimit="10"/></g><g transform="translate(-46,-62) scale(1,1)"><g><path fill="none" stroke="none"/><text fill="#000000" stroke="none" font-family="Arial" font-size="13px" font-style="normal" font-weight="bold" text-decoration="none" x="252.5" y="233">ControlUsuario</text></g></g><g transform="translate(-46,-62) scale(1,1)"><path fill="none" stroke="#000000" d="M 277.875 91.5 C 277.875 83.4228348 284.4228348 76.875 292.5 76.875 C 300.5771652 76.875 307.125 83.4228348 307.125 91.5 C 307.125 99.5771652 300.5771652 106.125 292.5 106.125 C 284.4228348 106.125 277.875 99.5771652 277.875 91.5 Z" stroke-miterlimit="10"/></g><g transform="translate(-46,-62) scale(1,1)"><path fill="none" stroke="#000000" d="M 292.5 76.875 L 297.375 72" stroke-miterlimit="10"/></g><g transform="translate(-46,-62) scale(1,1)"><path fill="none" stroke="#000000" d="M 292.5 76.875 L 297.375 81.75" stroke-miterlimit="10"/></g><g transform="translate(-46,-62) scale(1,1)"><g><path fill="none" stroke="none"/><text fill="#000000" stroke="none" font-family="Arial" font-size="13px" font-style="normal" font-weight="bold" text-decoration="none" x="248" y="129">ControlAccion</text></g></g><g transform="translate(-46,-62) scale(1,1)"><path fill="none" stroke="#000000" d="M 289.375 315.5 C 289.375 307.4228348 295.9228348 300.875 304 300.875 C 312.0771652 300.875 318.625 307.4228348 318.625 315.5 C 318.625 323.5771652 312.0771652 330.125 304 330.125 C 295.9228348 330.125 289.375 323.5771652 289.375 315.5 Z" stroke-miterlimit="10"/></g><g transform="translate(-46,-62) scale(1,1)"><path fill="none" stroke="#000000" d="M 304 300.875 L 308.875 296" stroke-miterlimit="10"/></g><g transform="translate(-46,-62) scale(1,1)"><path fill="none" stroke="#000000" d="M 304 300.875 L 308.875 305.75" stroke-miterlimit="10"/></g><g transform="translate(-46,-62) scale(1,1)"><g><path fill="none" stroke="none"/><text fill="#000000" stroke="none" font-family="Arial" font-size="13px" font-style="normal" font-weight="bold" text-decoration="none" x="236.5" y="353">ControlAdministrador</text></g></g><g transform="translate(-46,-62) scale(1,1)"><path fill="none" stroke="#000000" d="M 435.375 123.5 C 435.375 115.4228348 441.9228348 108.875 450 108.875 C 458.0771652 108.875 464.625 115.4228348 464.625 123.5 C 464.625 131.5771652 458.0771652 138.125 450 138.125 C 441.9228348 138.125 435.375 131.5771652 435.375 123.5 Z" stroke-miterlimit="10"/></g><g transform="translate(-46,-62) scale(1,1)"><path fill="none" stroke="#000000" d="M 450 108.875 L 454.875 104" stroke-miterlimit="10"/></g><g transform="translate(-46,-62) scale(1,1)"><path fill="none" stroke="#000000" d="M 450 108.875 L 454.875 113.75" stroke-miterlimit="10"/></g><g transform="translate(-46,-62) scale(1,1)"><g><path fill="none" stroke="none"/><text fill="#000000" stroke="none" font-family="Arial" font-size="13px" font-style="normal" font-weight="bold" text-decoration="none" x="404.5" y="161">ControlCliente</text></g></g></g></svg>