<?xml version="1.0" encoding="utf-8"?>
<!-- Generator: Adobe Illustrator 16.0.0, SVG Export Plug-In . SVG Version: 6.00 Build 0)  -->
<!DOCTYPE svg PUBLIC "-//W3C//DTD SVG 1.1//EN" "http://www.w3.org/Graphics/SVG/1.1/DTD/svg11.dtd">
<svg version="1.1" id="Capa_1" xmlns="http://www.w3.org/2000/svg" xmlns:xlink="http://www.w3.org/1999/xlink" x="0px" y="0px"
	 width="841.889px" height="595.281px" viewBox="0 0 841.889 595.281" enable-background="new 0 0 841.889 595.281"
	 xml:space="preserve">
<path fill="#FFFFFF" d="M421.061,163.934c-73.944,0-133.589,59.645-133.589,133.59s59.645,133.589,133.589,133.589
	c73.945,0,133.59-59.644,133.59-133.589S495.006,163.934,421.061,163.934z M421.061,384.375c-47.785,0-86.851-38.949-86.851-86.851
	s38.949-86.851,86.851-86.851s86.851,38.949,86.851,86.851S468.846,384.375,421.061,384.375L421.061,384.375z M591.274,158.47
	c0,17.323-13.952,31.159-31.159,31.159c-17.323,0-31.159-13.952-31.159-31.159c0-17.208,13.952-31.159,31.159-31.159
	S591.274,141.262,591.274,158.47z M679.752,190.094c-1.977-41.739-11.511-78.712-42.088-109.174
	C607.202,50.46,570.23,40.926,528.49,38.833c-43.019-2.441-171.957-2.441-214.976,0c-41.623,1.977-78.595,11.511-109.173,41.972
	c-30.578,30.462-39.995,67.435-42.088,109.174c-2.442,43.019-2.442,171.957,0,214.976c1.976,41.739,11.51,78.712,42.088,109.173
	c30.578,30.462,67.434,39.996,109.173,42.089c43.019,2.441,171.957,2.441,214.976,0c41.739-1.977,78.712-11.511,109.174-42.089
	c30.461-30.461,39.995-67.434,42.088-109.173C682.194,361.935,682.194,233.113,679.752,190.094L679.752,190.094z M624.177,451.111
	c-9.068,22.788-26.625,40.344-49.529,49.529c-34.298,13.603-115.685,10.464-153.587,10.464s-119.404,3.022-153.587-10.464
	c-22.788-9.068-40.344-26.625-49.529-49.529c-13.603-34.299-10.464-115.685-10.464-153.587c0-37.903-3.022-119.405,10.464-153.587
	c9.069-22.788,26.625-40.345,49.529-49.529c34.299-13.604,115.685-10.464,153.587-10.464s119.405-3.023,153.587,10.464
	c22.788,9.068,40.345,26.625,49.529,49.529c13.603,34.298,10.464,115.684,10.464,153.587
	C634.641,335.427,637.78,416.928,624.177,451.111z"/>
</svg>
