<?xml version="1.0" encoding="utf-8"?>
<!-- Generator: Adobe Illustrator 16.0.0, SVG Export Plug-In . SVG Version: 6.00 Build 0)  -->
<!DOCTYPE svg PUBLIC "-//W3C//DTD SVG 1.1//EN" "http://www.w3.org/Graphics/SVG/1.1/DTD/svg11.dtd">
<svg version="1.1" id="Capa_1" xmlns="http://www.w3.org/2000/svg" xmlns:xlink="http://www.w3.org/1999/xlink" x="0px" y="0px"
	 width="841.889px" height="595.281px" viewBox="0 0 841.889 595.281" enable-background="new 0 0 841.889 595.281"
	 xml:space="preserve">
<path fill="#F9F7F7" d="M722.77,120.683L656.15,15.231C650.221,5.813,639.64,0,628.363,0H213.527
	c-11.277,0-21.857,5.813-27.787,15.231l-66.736,105.452c-34.415,54.413-3.953,130.102,60.342,138.821
	c4.65,0.582,9.417,0.931,14.068,0.931c30.345,0,57.318-13.255,75.805-33.717c18.486,20.462,45.46,33.717,75.806,33.717
	c30.345,0,57.318-13.255,75.805-33.717c18.486,20.462,45.46,33.717,75.805,33.717c30.462,0,57.319-13.255,75.806-33.717
	c18.603,20.462,45.46,33.717,75.806,33.717c4.767,0,9.417-0.349,14.067-0.931c64.527-8.604,95.105-84.292,60.575-138.821H722.77z
	 M667.079,296.361h-0.116c-6.162,0.814-12.44,1.279-18.836,1.279c-14.416,0-28.252-2.209-41.157-6.162v154.982H234.92V291.362
	c-13.022,4.069-26.974,6.278-41.391,6.278c-6.395,0-12.79-0.465-18.952-1.279h-0.116c-4.767-0.697-9.417-1.512-13.951-2.674v152.773
	v74.41c0,41.041,33.368,74.41,74.41,74.41h372.05c41.041,0,74.41-33.369,74.41-74.41v-74.41V293.687
	C676.729,294.849,672.078,295.78,667.079,296.361L667.079,296.361z"/>
</svg>
