<?xml version="1.0" encoding="utf-8"?>
<!-- Generator: Adobe Illustrator 21.1.0, SVG Export Plug-In . SVG Version: 6.00 Build 0)  -->
<svg version="1.1" id="Capa_1" xmlns="http://www.w3.org/2000/svg" xmlns:xlink="http://www.w3.org/1999/xlink" x="0px" y="0px"
	 viewBox="0 0 576 512" style="enable-background:new 0 0 576 512;" xml:space="preserve">
<style type="text/css">
	.st0{fill:#FFFFFF;}
</style>
<path class="st0" d="M547.6,103.8l-57.3-90.7C485.2,5,476.1,0,466.4,0H109.6c-9.7,0-18.8,5-23.9,13.1l-57.4,90.7
	c-29.6,46.8-3.4,111.9,51.9,119.4c4,0.5,8.1,0.8,12.1,0.8c26.1,0,49.3-11.4,65.2-29c15.9,17.6,39.1,29,65.2,29s49.3-11.4,65.2-29
	c15.9,17.6,39.1,29,65.2,29c26.2,0,49.3-11.4,65.2-29c16,17.6,39.1,29,65.2,29c4.1,0,8.1-0.3,12.1-0.8
	c55.5-7.4,81.8-72.5,52.1-119.4L547.6,103.8z M499.7,254.9h-0.1c-5.3,0.7-10.7,1.1-16.2,1.1c-12.4,0-24.3-1.9-35.4-5.3V384H128
	V250.6c-11.2,3.5-23.2,5.4-35.6,5.4c-5.5,0-11-0.4-16.3-1.1H76c-4.1-0.6-8.1-1.3-12-2.3V384v64c0,35.3,28.7,64,64,64h320
	c35.3,0,64-28.7,64-64v-64V252.6C508,253.6,504,254.4,499.7,254.9L499.7,254.9z"/>
</svg>
