<?xml version="1.0" encoding="utf-8"?>
<!-- Generator: Adobe Illustrator 16.0.0, SVG Export Plug-In . SVG Version: 6.00 Build 0)  -->
<!DOCTYPE svg PUBLIC "-//W3C//DTD SVG 1.1//EN" "http://www.w3.org/Graphics/SVG/1.1/DTD/svg11.dtd">
<svg version="1.1" id="Capa_1" xmlns="http://www.w3.org/2000/svg" xmlns:xlink="http://www.w3.org/1999/xlink" x="0px" y="0px"
	 width="841.889px" height="595.281px" viewBox="0 0 841.889 595.281" enable-background="new 0 0 841.889 595.281"
	 xml:space="preserve">
<path fill="#FFFFFF" d="M195.04,196.954l118.01,323.219c-82.549-39.995-139.402-124.637-139.402-222.532
	C173.648,261.714,181.322,227.764,195.04,196.954z M587.903,285.2c0-30.578-10.93-51.738-20.347-68.248
	c-12.557-20.347-24.3-37.67-24.3-58.017c0-22.788,17.207-43.948,41.507-43.948c1.046,0,2.093,0.116,3.256,0.232
	c-44.065-40.345-102.663-64.993-167.074-64.993c-86.385,0-162.423,44.298-206.72,111.499c5.813,0.232,11.277,0.349,15.928,0.349
	c25.812,0,65.923-3.139,65.923-3.139c13.37-0.814,14.882,18.835,1.628,20.347c0,0-13.371,1.511-28.253,2.325l90.106,267.876
	l54.18-162.307l-38.484-105.569c-13.37-0.814-25.927-2.325-25.927-2.325c-13.371-0.814-11.743-21.16,1.511-20.347
	c0,0,40.81,3.139,65.109,3.139c25.811,0,65.922-3.139,65.922-3.139c13.371-0.813,14.883,18.835,1.628,20.347
	c0,0-13.37,1.511-28.252,2.325l89.408,265.899l24.648-82.433C579.764,330.892,587.903,306.36,587.903,285.2z M425.246,319.265
	L351.07,534.938c22.206,6.511,45.575,10.115,69.875,10.115c28.834,0,56.389-4.999,82.084-14.067
	c-0.698-1.047-1.279-2.21-1.744-3.372L425.246,319.265z M638.013,178.933c1.046,7.905,1.627,16.276,1.627,25.462
	c0,25.113-4.65,53.249-18.835,88.594l-75.572,218.464c73.596-42.902,123.009-122.544,123.009-213.813
	C668.241,254.622,657.313,214.162,638.013,178.933z M709.283,297.64c0,159.052-129.403,288.339-288.339,288.339
	c-159.051,0-288.339-129.403-288.339-288.339c0-159.052,129.288-288.339,288.339-288.339
	C579.88,9.302,709.283,138.589,709.283,297.64z M696.03,297.64c0-151.727-123.475-275.085-275.085-275.085
	c-151.727,0-275.084,123.358-275.084,275.085s123.474,275.085,275.084,275.085C572.671,572.725,696.03,449.367,696.03,297.64z"/>
</svg>
